<svg width="683" height="163" viewBox="0 0 683 163" fill="none" xmlns="http://www.w3.org/2000/svg">
<path d="M132.562 48.7555V88.4335C132.569 91.7851 132.176 95.1256 131.391 98.3841C129.061 107.409 124.033 115.509 116.978 121.6C109.923 127.692 101.177 131.486 91.9084 132.475C89.9927 132.67 88.8221 133.326 88.8044 135.402V160.109C88.8044 162.256 89.9573 162.965 92.0148 162.557C94.0723 162.149 96.4668 161.688 98.7194 161.404C113.233 159.533 126.813 153.22 137.599 143.33C154.254 128.413 162.343 109.292 162.751 87.2451C163.229 59.7171 162.875 32.26 162.857 4.62548C162.857 0.776513 162.467 0.333084 158.494 0.333084H137.032C132.881 0.333084 132.58 0.652353 132.58 4.78511C132.568 19.4596 132.562 34.1164 132.562 48.7555Z" fill="#3D85C6"/>
<path d="M118.709 46.6271V4.67869C118.691 0.758776 118.337 0.333084 114.399 0.333084H94.2319C88.9108 0.333084 88.7689 0.457244 88.7689 5.81386V113.496C88.7689 114.472 88.7689 115.447 88.8753 116.423C89.0172 118.072 89.975 118.658 91.5713 118.321C96.932 117.476 102.005 115.333 106.346 112.077C110.364 108.909 113.581 104.841 115.738 100.201C117.894 95.5607 118.93 90.4789 118.762 85.365C118.727 72.4287 118.709 59.5161 118.709 46.6271Z" fill="#3D85C6"/>
<path d="M37.3134 30.3443H70.4641C73.3553 30.3443 74.5791 29.2801 74.5437 26.318C74.4373 19.0694 74.4373 11.8149 74.5437 4.55453C74.5969 1.55695 73.5149 0.333084 70.3932 0.333084C48.3991 0.404033 26.405 0.404033 4.41097 0.333084C1.50208 0.333084 0.3669 1.36184 0.3669 4.32394C0.49106 11.4188 0.3669 18.6201 0.3669 25.7859C0.3669 29.9896 0.73938 30.3266 5.08498 30.3443H37.3134ZM37.4198 44.5518H4.58834C1.51981 44.5518 0.313688 45.616 0.3669 48.72C0.508797 55.8149 0.3669 63.0339 0.3669 70.182C0.3669 74.1551 0.73938 74.5453 4.60608 74.5453H70.2335C73.2666 74.5453 74.5437 73.5166 74.4905 70.3948C74.3486 63.566 74.4905 56.7372 74.4905 49.9084C74.4905 44.7292 74.3131 44.5873 69.1693 44.5873L37.4198 44.5518ZM37.4553 88.3626H4.26907C1.87456 88.3626 0.0653681 88.8769 0.455586 91.7681C1.25532 99.9358 3.14639 107.959 6.07826 115.625C6.40384 116.594 7.05085 117.423 7.91211 117.975C8.77338 118.527 9.79723 118.767 10.8141 118.658H70.677C73.4794 118.658 74.5791 117.611 74.5437 114.826C74.5437 107.341 74.4195 99.8562 74.5437 92.3712C74.5437 89.214 73.3375 88.2207 70.3045 88.2561C59.3607 88.4158 48.4168 88.3448 37.4553 88.3626ZM45.2419 132.51H19.5762C18.6362 132.51 17.4123 132.12 16.9157 133.184C16.419 134.249 17.5542 134.958 18.1395 135.614C26.8274 146.105 38.2626 153.972 51.1661 158.336C57.4451 160.571 64.0255 161.174 70.4996 162.362C73.7278 162.965 74.4727 162.575 74.4905 159.293V136.554C74.4905 133.362 73.1956 132.422 70.1981 132.457C61.9326 132.581 53.5784 132.51 45.2419 132.51Z" fill="#FF9900"/>
<mask id="mask0_1_75" style="mask-type:luminance" maskUnits="userSpaceOnUse" x="192" y="26" width="491" height="113">
<path d="M272.67 32.5288V105.326C272.67 106.374 272.483 107.342 272.11 108.232C271.737 109.122 271.213 109.896 270.539 110.557C269.879 111.202 269.096 111.712 268.192 112.085C267.303 112.458 266.356 112.644 265.351 112.644H232.612C229.512 112.644 226.384 112.307 223.227 111.633C220.056 110.973 216.992 109.94 214.036 108.533C211.065 107.141 208.281 105.362 205.684 103.195C203.072 101.043 200.791 98.4811 198.839 95.5107C196.873 92.5546 195.338 89.168 194.233 85.3509C193.114 81.5338 192.554 77.2791 192.554 72.5866V32.5288H207.083V72.5866C207.083 76.6764 207.65 80.1419 208.784 82.9832C209.917 85.8101 211.36 88.1707 213.11 90.0649C214.861 91.9734 216.777 93.4658 218.857 94.542C220.952 95.6183 222.94 96.4219 224.82 96.9528C226.7 97.4694 228.357 97.7923 229.792 97.9214C231.227 98.0506 232.167 98.1152 232.612 98.1152H258.14V32.5288H272.67ZM369.596 50.1792V59.4564C369.596 62.7713 369.187 65.7345 368.369 68.3462C367.551 70.9436 366.446 73.2396 365.054 75.2342C363.663 77.2288 362.048 78.9365 360.211 80.3571C358.389 81.7634 356.48 82.9258 354.486 83.8442C352.491 84.7626 350.482 85.4227 348.459 85.8245C346.435 86.2406 344.527 86.4487 342.733 86.4487L373.062 112.644H350.611L320.326 86.4487H309.886V71.9194H342.733C344.556 71.7615 346.22 71.3812 347.727 70.7785C349.234 70.1615 350.54 69.3292 351.644 68.2817C352.749 67.2341 353.596 65.9785 354.184 64.5148C354.787 63.0368 355.088 61.3506 355.088 59.4564V50.2868C355.088 49.4689 354.981 48.8447 354.766 48.4142C354.565 47.9837 354.306 47.668 353.991 47.4671C353.675 47.2662 353.338 47.1442 352.979 47.1012C352.635 47.0725 352.312 47.0581 352.01 47.0581H304.074V112.644H289.545V39.8473C289.545 38.8428 289.732 37.8885 290.105 36.9844C290.478 36.0948 290.987 35.3127 291.633 34.6382C292.293 33.9781 293.068 33.4615 293.958 33.0884C294.847 32.7153 295.816 32.5288 296.864 32.5288H352.01C355.253 32.5288 357.987 33.1171 360.211 34.2938C362.45 35.4562 364.265 36.9271 365.657 38.7064C367.063 40.4715 368.075 42.38 368.692 44.4321C369.295 46.4698 369.596 48.3855 369.596 50.1792ZM457.762 98.1152V112.644H391.509C390.461 112.644 389.492 112.458 388.603 112.085C387.713 111.712 386.938 111.202 386.278 110.557C385.632 109.896 385.123 109.122 384.75 108.232C384.377 107.342 384.19 106.374 384.19 105.326V32.5288H398.719V98.1152H457.762ZM539.514 98.1152V112.644H465.92V85.7599C465.92 84.3823 466.085 82.9258 466.415 81.3903C466.731 79.8405 467.219 78.3051 467.879 76.784C468.553 75.2485 469.422 73.792 470.483 72.4144C471.545 71.0368 472.83 69.8171 474.336 68.7552C475.843 67.6933 477.587 66.8467 479.567 66.2153C481.533 65.5839 483.764 65.2682 486.261 65.2682H519.001C520.981 65.2682 522.445 64.7731 523.392 63.783C524.339 62.7928 524.812 61.3506 524.812 59.4564V53.0205C524.812 51.0546 524.332 49.5693 523.37 48.5648C522.394 47.5604 520.981 47.0581 519.13 47.0581H472.464V32.5288H519.13C521.584 32.5288 523.793 32.8445 525.759 33.4759C527.74 34.1073 529.483 34.9539 530.99 36.0158C532.497 37.0777 533.795 38.2975 534.886 39.6751C535.962 41.0527 536.845 42.4948 537.534 44.0016C538.222 45.5083 538.725 47.0366 539.04 48.5864C539.356 50.1362 539.514 51.5783 539.514 52.9129V59.4564C539.514 63.2161 538.832 66.3875 537.469 68.9705C536.12 71.5678 534.42 73.6772 532.368 75.2988C530.315 76.9203 528.106 78.0898 525.738 78.8073C523.37 79.5392 521.167 79.9051 519.13 79.9051H486.261C485.07 79.9051 484.123 80.0701 483.42 80.4002C482.717 80.7446 482.164 81.1966 481.762 81.7562C481.375 82.3159 481.088 82.9473 480.902 83.6504C480.715 84.3536 480.564 85.0567 480.449 85.7599V98.1152H539.514ZM606.392 52.2456V66.7749H573.545V52.2456H606.392ZM606.392 26.0498V40.5791H573.652C571.672 40.5791 570.18 41.067 569.175 42.0428C568.171 43.033 567.668 44.4751 567.668 46.3693V112.644H553.139V46.3693C553.139 43.8868 553.455 41.6554 554.086 39.6751C554.732 37.6948 555.586 35.9513 556.648 34.4445C557.71 32.9378 558.929 31.6535 560.307 30.5916C561.684 29.5297 563.127 28.6687 564.633 28.0086C566.14 27.3341 567.654 26.8391 569.175 26.5234C570.711 26.2077 572.167 26.0498 573.545 26.0498H606.392ZM682.482 52.2456V118.456C682.482 120.953 682.166 123.199 681.535 125.193C680.904 127.188 680.064 128.939 679.017 130.446C677.983 131.952 676.778 133.237 675.401 134.299C674.023 135.36 672.581 136.229 671.074 136.903C669.553 137.563 668.032 138.051 666.511 138.367C664.99 138.682 663.54 138.84 662.163 138.84H635.945V124.332H662.163C664.1 124.332 665.549 123.823 666.511 122.804C667.487 121.8 667.974 120.35 667.974 118.456V52.2456H682.482ZM662.163 98.1152V112.644H635.945C633.865 112.644 631.64 112.293 629.273 111.59C626.905 110.872 624.695 109.703 622.643 108.081C620.605 106.474 618.912 104.372 617.563 101.774C616.229 99.1914 615.561 96.0201 615.561 92.2604V52.2456H630.091V92.2604C630.091 94.1546 630.593 95.6039 631.597 96.6084C632.602 97.6129 634.087 98.1152 636.053 98.1152H662.163Z" fill="white"/>
</mask>
<g mask="url(#mask0_1_75)">
<path d="M272.67 32.5288V105.326C272.67 106.374 272.483 107.342 272.11 108.232C271.737 109.122 271.213 109.896 270.539 110.557C269.879 111.202 269.096 111.712 268.192 112.085C267.303 112.458 266.356 112.644 265.351 112.644H232.612C229.512 112.644 226.384 112.307 223.227 111.633C220.056 110.973 216.992 109.94 214.036 108.533C211.065 107.141 208.281 105.362 205.684 103.195C203.072 101.043 200.791 98.4811 198.839 95.5107C196.873 92.5546 195.338 89.168 194.233 85.3509C193.114 81.5338 192.554 77.2791 192.554 72.5866V32.5288H207.083V72.5866C207.083 76.6764 207.65 80.1419 208.784 82.9832C209.917 85.8101 211.36 88.1707 213.11 90.0649C214.861 91.9734 216.777 93.4658 218.857 94.542C220.952 95.6183 222.94 96.4219 224.82 96.9528C226.7 97.4694 228.357 97.7923 229.792 97.9214C231.227 98.0506 232.167 98.1152 232.612 98.1152H258.14V32.5288H272.67ZM369.596 50.1792V59.4564C369.596 62.7713 369.187 65.7345 368.369 68.3462C367.551 70.9436 366.446 73.2396 365.054 75.2342C363.663 77.2288 362.048 78.9365 360.211 80.3571C358.389 81.7634 356.48 82.9258 354.486 83.8442C352.491 84.7626 350.482 85.4227 348.459 85.8245C346.435 86.2406 344.527 86.4487 342.733 86.4487L373.062 112.644H350.611L320.326 86.4487H309.886V71.9194H342.733C344.556 71.7615 346.22 71.3812 347.727 70.7785C349.234 70.1615 350.54 69.3292 351.644 68.2817C352.749 67.2341 353.596 65.9785 354.184 64.5148C354.787 63.0368 355.088 61.3506 355.088 59.4564V50.2868C355.088 49.4689 354.981 48.8447 354.766 48.4142C354.565 47.9837 354.306 47.668 353.991 47.4671C353.675 47.2662 353.338 47.1442 352.979 47.1012C352.635 47.0725 352.312 47.0581 352.01 47.0581H304.074V112.644H289.545V39.8473C289.545 38.8428 289.732 37.8885 290.105 36.9844C290.478 36.0948 290.987 35.3127 291.633 34.6382C292.293 33.9781 293.068 33.4615 293.958 33.0884C294.847 32.7153 295.816 32.5288 296.864 32.5288H352.01C355.253 32.5288 357.987 33.1171 360.211 34.2938C362.45 35.4562 364.265 36.9271 365.657 38.7064C367.063 40.4715 368.075 42.38 368.692 44.4321C369.295 46.4698 369.596 48.3855 369.596 50.1792ZM457.762 98.1152V112.644H391.509C390.461 112.644 389.492 112.458 388.603 112.085C387.713 111.712 386.938 111.202 386.278 110.557C385.632 109.896 385.123 109.122 384.75 108.232C384.377 107.342 384.19 106.374 384.19 105.326V32.5288H398.719V98.1152H457.762ZM539.514 98.1152V112.644H465.92V85.7599C465.92 84.3823 466.085 82.9258 466.415 81.3903C466.731 79.8405 467.219 78.3051 467.879 76.784C468.553 75.2486 469.422 73.792 470.483 72.4144C471.545 71.0368 472.83 69.8171 474.336 68.7552C475.843 67.6933 477.587 66.8467 479.567 66.2153C481.533 65.5839 483.764 65.2682 486.261 65.2682H519.001C520.981 65.2682 522.445 64.7731 523.392 63.783C524.339 62.7928 524.812 61.3506 524.812 59.4564V53.0205C524.812 51.0546 524.332 49.5693 523.37 48.5648C522.394 47.5604 520.981 47.0581 519.13 47.0581H472.464V32.5288H519.13C521.584 32.5288 523.793 32.8445 525.759 33.4759C527.74 34.1073 529.483 34.9539 530.99 36.0158C532.497 37.0777 533.795 38.2975 534.886 39.6751C535.962 41.0527 536.845 42.4948 537.534 44.0016C538.222 45.5083 538.725 47.0366 539.04 48.5864C539.356 50.1362 539.514 51.5783 539.514 52.9129V59.4564C539.514 63.2161 538.832 66.3875 537.469 68.9705C536.12 71.5678 534.42 73.6772 532.368 75.2988C530.315 76.9203 528.106 78.0898 525.738 78.8073C523.37 79.5392 521.167 79.9051 519.13 79.9051H486.261C485.07 79.9051 484.123 80.0701 483.42 80.4002C482.717 80.7446 482.164 81.1966 481.763 81.7562C481.375 82.3159 481.088 82.9473 480.902 83.6504C480.715 84.3536 480.564 85.0567 480.449 85.7599V98.1152H539.514ZM606.392 52.2456V66.7749H573.545V52.2456H606.392ZM606.392 26.0498V40.5791H573.652C571.672 40.5791 570.18 41.067 569.175 42.0428C568.171 43.033 567.668 44.4751 567.668 46.3693V112.644H553.139V46.3693C553.139 43.8868 553.455 41.6554 554.086 39.6751C554.732 37.6948 555.586 35.9513 556.648 34.4445C557.71 32.9378 558.929 31.6535 560.307 30.5916C561.684 29.5297 563.127 28.6687 564.633 28.0086C566.14 27.3341 567.654 26.8391 569.175 26.5234C570.711 26.2077 572.167 26.0498 573.545 26.0498H606.392ZM682.482 52.2456V118.456C682.482 120.953 682.166 123.199 681.535 125.193C680.904 127.188 680.064 128.939 679.017 130.446C677.983 131.952 676.778 133.237 675.401 134.299C674.023 135.36 672.581 136.229 671.074 136.903C669.553 137.563 668.032 138.051 666.511 138.367C664.99 138.682 663.54 138.84 662.163 138.84H635.945V124.332H662.163C664.1 124.332 665.549 123.823 666.511 122.804C667.487 121.8 667.974 120.35 667.974 118.456V52.2456H682.482ZM662.163 98.1152V112.644H635.945C633.865 112.644 631.64 112.293 629.273 111.59C626.905 110.872 624.695 109.703 622.643 108.081C620.605 106.474 618.912 104.372 617.563 101.774C616.229 99.1914 615.561 96.0201 615.561 92.2604V52.2456H630.091V92.2604C630.091 94.1546 630.593 95.6039 631.597 96.6084C632.602 97.6129 634.087 98.1152 636.053 98.1152H662.163Z" fill="#3D85C6"/>
</g>
</svg>
