<svg width="267" height="64" viewBox="0 0 267 64" fill="none" xmlns="http://www.w3.org/2000/svg">
<path d="M51.576 18.8918V34.372C51.5786 35.6796 51.4253 36.9829 51.1192 38.2542C50.2102 41.7753 48.2484 44.9352 45.4959 47.3118C42.7434 49.6884 39.3312 51.1686 35.7152 51.5545C34.9678 51.6307 34.5111 51.8867 34.5042 52.6964V62.336C34.5042 63.1733 34.954 63.4501 35.7567 63.291C36.5594 63.1318 37.4936 62.9519 38.3725 62.8412C44.035 62.1113 49.3332 59.6483 53.5413 55.7896C60.0392 49.9698 63.1948 42.51 63.3539 33.9084C63.5408 23.1684 63.4024 12.4561 63.3955 1.67466C63.3955 0.173002 63.2432 0 61.6931 0H53.3198C51.7005 0 51.5829 0.124561 51.5829 1.73694C51.5783 7.46214 51.576 13.1804 51.576 18.8918Z" fill="#3D85C6"/>
<path d="M46.1714 18.0614V1.69542C46.1645 0.166082 46.0261 0 44.4898 0H36.6217C34.5457 0 34.4903 0.0484405 34.4903 2.1383V44.1501C34.4903 44.5307 34.4903 44.9113 34.5318 45.2919C34.5872 45.9354 34.9609 46.1638 35.5837 46.0323C37.6751 45.7028 39.6541 44.8666 41.3481 43.5965C42.9156 42.3603 44.1706 40.7731 45.012 38.9629C45.8534 37.1526 46.2577 35.17 46.1921 33.1748C46.1783 28.1278 46.1714 23.09 46.1714 18.0614Z" fill="#3D85C6"/>
<path d="M14.4152 11.7088H27.3488C28.4768 11.7088 28.9542 11.2936 28.9404 10.1379C28.8989 7.3099 28.8989 4.47959 28.9404 1.64698C28.9612 0.477485 28.539 0 27.3211 0C18.7402 0.0276803 10.1593 0.0276803 1.57843 0C0.44354 0 0.000655692 0.401364 0.000655692 1.55702C0.0490962 4.32505 0.000655692 7.13459 0.000655692 9.9303C0.000655692 11.5704 0.145977 11.7018 1.84139 11.7088H14.4152ZM14.4567 17.2517H1.64763C0.45046 17.2517 -0.0201045 17.6669 0.000655692 18.878C0.0560163 21.646 0.000655692 24.4625 0.000655692 27.2512C0.000655692 28.8013 0.145977 28.9536 1.65455 28.9536H27.2588C28.4422 28.9536 28.9404 28.5522 28.9196 27.3343C28.8643 24.6701 28.9196 22.0058 28.9196 19.3416C28.9196 17.3209 28.8504 17.2656 26.8436 17.2656L14.4567 17.2517ZM14.4705 34.3443H1.52307C0.588862 34.3443 -0.116986 34.545 0.0352561 35.673C0.34727 38.8596 1.08506 41.9899 2.22892 44.9805C2.35594 45.3587 2.60837 45.6823 2.94439 45.8975C3.28041 46.1127 3.67986 46.2066 4.07658 46.1638H27.4318C28.5252 46.1638 28.9542 45.7555 28.9404 44.6691C28.9404 41.7488 28.892 38.8285 28.9404 35.9083C28.9404 34.6765 28.4698 34.289 27.2865 34.3028C23.0168 34.3651 18.7471 34.3374 14.4705 34.3443ZM17.5084 51.5684H7.49509C7.12833 51.5684 6.65085 51.4161 6.45708 51.8313C6.26332 52.2465 6.70621 52.5233 6.93457 52.7794C10.3241 56.8724 14.7855 59.9417 19.8197 61.644C22.2694 62.5159 24.8368 62.7512 27.3626 63.2149C28.6221 63.4501 28.9127 63.2979 28.9196 62.0177V53.1462C28.9196 51.9005 28.4145 51.5338 27.245 51.5476C24.0202 51.5961 20.7609 51.5684 17.5084 51.5684Z" fill="#FF9900"/>
<mask id="mask0_1_79" style="mask-type:luminance" maskUnits="userSpaceOnUse" x="74" y="18" width="193" height="46">
<path d="M106.238 21.6449V50.0464C106.238 50.4551 106.166 50.833 106.02 51.1801C105.874 51.5272 105.67 51.8295 105.407 52.0871C105.149 52.339 104.844 52.5378 104.492 52.6833C104.145 52.8289 103.775 52.9017 103.383 52.9017H90.61C89.4007 52.9017 88.1802 52.7701 86.9486 52.507C85.7113 52.2494 84.516 51.8463 83.3627 51.2977C82.2038 50.7546 81.1177 50.0604 80.1043 49.215C79.0854 48.3752 78.1952 47.3759 77.4338 46.217C76.6668 45.0637 76.0677 43.7424 75.6367 42.2532C75.2 40.764 74.9816 39.104 74.9816 37.2733V21.6449H80.6502V37.2733C80.6502 38.8689 80.8713 40.2209 81.3136 41.3294C81.7559 42.4324 82.3185 43.3533 83.0016 44.0923C83.6846 44.8369 84.432 45.4192 85.2438 45.8391C86.0612 46.259 86.8366 46.5725 87.57 46.7796C88.3034 46.9812 88.95 47.1072 89.5099 47.1575C90.0698 47.2079 90.4365 47.2331 90.61 47.2331H100.57V21.6449H106.238ZM144.054 28.5311V32.1506C144.054 33.4439 143.894 34.6 143.575 35.6189C143.256 36.6322 142.825 37.528 142.282 38.3062C141.739 39.0844 141.109 39.7506 140.392 40.3049C139.681 40.8536 138.937 41.307 138.159 41.6654C137.38 42.0237 136.597 42.2812 135.807 42.438C135.018 42.6003 134.273 42.6815 133.573 42.6815L145.406 52.9017H136.647L124.831 42.6815H120.758V37.0129H133.573C134.284 36.9514 134.934 36.803 135.522 36.5679C136.11 36.3271 136.619 36.0024 137.05 35.5937C137.481 35.185 137.812 34.6951 138.041 34.1241C138.276 33.5474 138.394 32.8896 138.394 32.1506V28.5731C138.394 28.254 138.352 28.0105 138.268 27.8425C138.189 27.6745 138.089 27.5514 137.965 27.473C137.842 27.3946 137.711 27.347 137.571 27.3302C137.436 27.319 137.31 27.3134 137.193 27.3134H118.491V52.9017H112.822V24.5002C112.822 24.1083 112.895 23.736 113.041 23.3832C113.186 23.0361 113.385 22.731 113.637 22.4679C113.894 22.2103 114.197 22.0088 114.544 21.8632C114.891 21.7177 115.269 21.6449 115.678 21.6449H137.193C138.458 21.6449 139.525 21.8744 140.392 22.3335C141.266 22.787 141.974 23.3609 142.517 24.0551C143.066 24.7437 143.46 25.4883 143.701 26.2889C143.936 27.0839 144.054 27.8313 144.054 28.5311ZM178.451 47.2331V52.9017H152.603C152.194 52.9017 151.816 52.8289 151.469 52.6833C151.122 52.5378 150.82 52.339 150.562 52.0871C150.31 51.8295 150.112 51.5272 149.966 51.1801C149.82 50.833 149.748 50.4551 149.748 50.0464V21.6449H155.416V47.2331H178.451ZM210.346 47.2331V52.9017H181.634V42.4128C181.634 41.8753 181.699 41.307 181.827 40.708C181.951 40.1034 182.141 39.5043 182.398 38.9109C182.662 38.3118 183 37.7436 183.415 37.2061C183.829 36.6686 184.33 36.1928 184.918 35.7785C185.506 35.3642 186.186 35.0339 186.958 34.7875C187.725 34.5412 188.596 34.418 189.57 34.418H202.343C203.116 34.418 203.687 34.2249 204.056 33.8386C204.426 33.4523 204.611 32.8896 204.611 32.1506V29.6396C204.611 28.8726 204.423 28.2932 204.048 27.9013C203.667 27.5094 203.116 27.3134 202.394 27.3134H184.187V21.6449H202.394C203.351 21.6449 204.213 21.7681 204.98 22.0144C205.753 22.2607 206.433 22.5911 207.021 23.0053C207.609 23.4196 208.115 23.8955 208.541 24.433C208.961 24.9704 209.305 25.5331 209.574 26.1209C209.843 26.7088 210.039 27.305 210.162 27.9097C210.285 28.5143 210.346 29.077 210.346 29.5977V32.1506C210.346 33.6174 210.081 34.8547 209.549 35.8624C209.022 36.8758 208.359 37.6988 207.558 38.3314C206.758 38.964 205.896 39.4203 204.972 39.7003C204.048 39.9858 203.189 40.1285 202.394 40.1285H189.57C189.106 40.1285 188.736 40.1929 188.462 40.3217C188.187 40.4561 187.972 40.6324 187.815 40.8508C187.664 41.0691 187.552 41.3154 187.479 41.5898C187.406 41.8641 187.348 42.1384 187.303 42.4128V47.2331H210.346ZM236.439 29.3373V35.0059H223.623V29.3373H236.439ZM236.439 19.1171V24.7857H223.665C222.893 24.7857 222.311 24.976 221.919 25.3567C221.527 25.743 221.331 26.3057 221.331 27.0447V52.9017H215.662V27.0447C215.662 26.0762 215.785 25.2056 216.032 24.433C216.284 23.6604 216.617 22.9801 217.031 22.3923C217.445 21.8045 217.921 21.3034 218.459 20.8891C218.996 20.4748 219.559 20.1389 220.147 19.8813C220.735 19.6182 221.325 19.4251 221.919 19.3019C222.518 19.1787 223.086 19.1171 223.623 19.1171H236.439ZM266.125 29.3373V55.1691C266.125 56.1432 266.002 57.0194 265.755 57.7976C265.509 58.5758 265.182 59.2588 264.773 59.8467C264.37 60.4345 263.9 60.9356 263.362 61.3499C262.825 61.7642 262.262 62.1029 261.674 62.366C261.081 62.6236 260.487 62.8139 259.894 62.9371C259.3 63.0603 258.735 63.1218 258.197 63.1218H247.969V57.4617H258.197C258.953 57.4617 259.519 57.263 259.894 56.8655C260.274 56.4736 260.465 55.9081 260.465 55.1691V29.3373H266.125ZM258.197 47.2331V52.9017H247.969C247.157 52.9017 246.289 52.7645 245.365 52.4902C244.442 52.2102 243.58 51.754 242.779 51.1213C241.984 50.4943 241.323 49.6741 240.797 48.6608C240.276 47.653 240.016 46.4157 240.016 44.9489V29.3373H245.685V44.9489C245.685 45.6879 245.881 46.2534 246.272 46.6453C246.664 47.0372 247.244 47.2331 248.011 47.2331H258.197Z" fill="white" stroke="black" stroke-width="1.5" stroke-linecap="round" stroke-linejoin="round"/>
</mask>
<g mask="url(#mask0_1_79)">
<path d="M106.238 21.6449V50.0464C106.238 50.4551 106.166 50.833 106.02 51.1801C105.874 51.5272 105.67 51.8295 105.407 52.0871C105.149 52.339 104.844 52.5378 104.492 52.6833C104.145 52.8289 103.775 52.9017 103.383 52.9017H90.61C89.4007 52.9017 88.1802 52.7701 86.9486 52.507C85.7113 52.2494 84.516 51.8463 83.3627 51.2977C82.2038 50.7546 81.1177 50.0604 80.1043 49.215C79.0854 48.3752 78.1952 47.3759 77.4338 46.217C76.6668 45.0637 76.0677 43.7424 75.6367 42.2532C75.2 40.764 74.9816 39.104 74.9816 37.2733V21.6449H80.6502V37.2733C80.6502 38.8689 80.8713 40.2209 81.3136 41.3294C81.7559 42.4324 82.3185 43.3533 83.0016 44.0923C83.6846 44.8369 84.432 45.4192 85.2438 45.8391C86.0612 46.259 86.8366 46.5725 87.57 46.7796C88.3034 46.9812 88.95 47.1072 89.5099 47.1575C90.0698 47.2079 90.4365 47.2331 90.61 47.2331H100.57V21.6449H106.238ZM144.054 28.5311V32.1506C144.054 33.4439 143.894 34.6 143.575 35.6189C143.256 36.6322 142.825 37.528 142.282 38.3062C141.739 39.0844 141.109 39.7506 140.392 40.3049C139.681 40.8536 138.937 41.307 138.159 41.6654C137.38 42.0237 136.597 42.2812 135.807 42.438C135.018 42.6003 134.273 42.6815 133.573 42.6815L145.406 52.9017H136.647L124.831 42.6815H120.758V37.0129H133.573C134.284 36.9514 134.934 36.803 135.522 36.5679C136.11 36.3271 136.619 36.0024 137.05 35.5937C137.481 35.185 137.812 34.6951 138.041 34.1241C138.276 33.5474 138.394 32.8896 138.394 32.1506V28.5731C138.394 28.254 138.352 28.0105 138.268 27.8425C138.189 27.6745 138.089 27.5514 137.965 27.473C137.842 27.3946 137.711 27.347 137.571 27.3302C137.436 27.319 137.31 27.3134 137.193 27.3134H118.491V52.9017H112.822V24.5002C112.822 24.1083 112.895 23.736 113.041 23.3832C113.186 23.0361 113.385 22.731 113.637 22.4679C113.894 22.2103 114.197 22.0088 114.544 21.8632C114.891 21.7177 115.269 21.6449 115.678 21.6449H137.193C138.458 21.6449 139.525 21.8744 140.392 22.3335C141.266 22.787 141.974 23.3609 142.517 24.0551C143.066 24.7437 143.46 25.4883 143.701 26.2889C143.936 27.0839 144.054 27.8313 144.054 28.5311ZM178.451 47.2331V52.9017H152.603C152.194 52.9017 151.816 52.8289 151.469 52.6833C151.122 52.5378 150.82 52.339 150.562 52.0871C150.31 51.8295 150.112 51.5272 149.966 51.1801C149.82 50.833 149.748 50.4551 149.748 50.0464V21.6449H155.416V47.2331H178.451ZM210.346 47.2331V52.9017H181.634V42.4128C181.634 41.8753 181.699 41.307 181.827 40.708C181.951 40.1034 182.141 39.5043 182.398 38.9109C182.662 38.3118 183 37.7436 183.415 37.2061C183.829 36.6686 184.33 36.1928 184.918 35.7785C185.506 35.3642 186.186 35.0339 186.958 34.7875C187.725 34.5412 188.596 34.418 189.57 34.418H202.343C203.116 34.418 203.687 34.2249 204.056 33.8386C204.426 33.4523 204.611 32.8896 204.611 32.1506V29.6396C204.611 28.8726 204.423 28.2932 204.048 27.9013C203.667 27.5094 203.116 27.3134 202.394 27.3134H184.187V21.6449H202.394C203.351 21.6449 204.213 21.7681 204.98 22.0144C205.753 22.2607 206.433 22.5911 207.021 23.0053C207.609 23.4196 208.115 23.8955 208.541 24.433C208.961 24.9704 209.305 25.5331 209.574 26.1209C209.843 26.7088 210.039 27.305 210.162 27.9097C210.285 28.5143 210.346 29.077 210.346 29.5977V32.1506C210.346 33.6174 210.081 34.8547 209.549 35.8624C209.022 36.8758 208.359 37.6988 207.558 38.3314C206.758 38.964 205.896 39.4203 204.972 39.7003C204.048 39.9858 203.189 40.1285 202.394 40.1285H189.57C189.106 40.1285 188.736 40.1929 188.462 40.3217C188.187 40.4561 187.972 40.6324 187.815 40.8508C187.664 41.0691 187.552 41.3154 187.479 41.5898C187.406 41.8641 187.348 42.1384 187.303 42.4128V47.2331H210.346ZM236.439 29.3373V35.0059H223.623V29.3373H236.439ZM236.439 19.1171V24.7857H223.665C222.893 24.7857 222.311 24.976 221.919 25.3567C221.527 25.743 221.331 26.3057 221.331 27.0447V52.9017H215.662V27.0447C215.662 26.0762 215.785 25.2056 216.032 24.433C216.284 23.6604 216.617 22.9801 217.031 22.3923C217.445 21.8045 217.921 21.3034 218.459 20.8891C218.996 20.4748 219.559 20.1389 220.147 19.8813C220.735 19.6182 221.325 19.4251 221.919 19.3019C222.518 19.1787 223.086 19.1171 223.623 19.1171H236.439ZM266.125 29.3373V55.1691C266.125 56.1432 266.002 57.0194 265.755 57.7976C265.509 58.5758 265.182 59.2588 264.773 59.8467C264.37 60.4345 263.9 60.9356 263.362 61.3499C262.825 61.7642 262.262 62.1029 261.674 62.366C261.081 62.6236 260.487 62.8139 259.894 62.9371C259.3 63.0603 258.735 63.1218 258.197 63.1218H247.969V57.4617H258.197C258.953 57.4617 259.519 57.263 259.894 56.8655C260.274 56.4736 260.465 55.9081 260.465 55.1691V29.3373H266.125ZM258.197 47.2331V52.9017H247.969C247.157 52.9017 246.289 52.7645 245.365 52.4902C244.442 52.2102 243.58 51.754 242.779 51.1213C241.984 50.4943 241.323 49.6741 240.797 48.6608C240.276 47.653 240.016 46.4157 240.016 44.9489V29.3373H245.685V44.9489C245.685 45.6879 245.881 46.2534 246.272 46.6453C246.664 47.0372 247.244 47.2331 248.011 47.2331H258.197Z" fill="white"/>
</g>
</svg>
