<svg width="2477" height="590" viewBox="0 0 2477 590" fill="none" xmlns="http://www.w3.org/2000/svg">
<path d="M480.433 176.458V320.504C480.458 332.672 479.031 344.799 476.183 356.629C467.724 389.393 449.469 418.797 423.857 440.912C398.244 463.027 366.493 476.8 332.845 480.391C325.891 481.1 321.641 483.482 321.576 491.016V580.715C321.576 588.507 325.762 591.082 333.231 589.601C340.701 588.12 349.394 586.446 357.572 585.416C410.262 578.624 459.564 555.705 498.72 519.8C559.185 465.645 588.548 396.23 590.029 316.19C591.768 216.253 590.48 116.573 590.416 16.2492C590.416 2.27595 588.999 0.666138 574.575 0.666138H496.66C481.592 0.666138 480.497 1.82521 480.497 16.8287C480.454 70.1029 480.433 123.313 480.433 176.458Z" fill="#3D85C6"/>
<path d="M430.143 168.731V16.4423C430.078 2.21156 428.791 0.666138 414.495 0.666138H341.281C321.963 0.666138 321.448 1.11689 321.448 20.5635V411.491C321.448 415.033 321.448 418.574 321.834 422.116C322.35 428.104 325.827 430.229 331.622 429.006C351.083 425.94 369.499 418.158 385.261 406.34C399.847 394.837 411.525 380.068 419.355 363.223C427.184 346.379 430.946 327.93 430.336 309.364C430.207 262.401 430.143 215.523 430.143 168.731Z" fill="#3D85C6"/>
<path d="M134.644 109.618H254.994C265.49 109.618 269.933 105.755 269.804 95.0014C269.418 68.6862 269.418 42.3496 269.804 15.9916C269.998 5.10923 266.07 0.666138 254.737 0.666138C174.89 0.923708 95.0428 0.923708 15.1959 0.666138C4.63553 0.666138 0.514402 4.40091 0.514402 15.1545C0.965151 40.9115 0.514402 67.055 0.514402 93.0696C0.514402 108.331 1.86665 109.554 17.6428 109.618H134.644ZM135.031 161.197H15.8399C4.69992 161.197 0.321224 165.061 0.514402 176.329C1.02954 202.086 0.514402 228.294 0.514402 254.244C0.514402 268.668 1.86665 270.085 15.9042 270.085H254.157C265.168 270.085 269.804 266.35 269.611 255.017C269.096 230.226 269.611 205.435 269.611 180.644C269.611 161.841 268.967 161.326 250.293 161.326L135.031 161.197ZM135.159 320.247H14.6808C5.98778 320.247 -0.580273 322.114 0.836365 332.61C3.73971 362.262 10.605 391.391 21.2488 419.218C22.4308 422.738 24.7797 425.749 27.9064 427.751C31.0331 429.754 34.7501 430.628 38.4417 430.229H255.767C265.941 430.229 269.933 426.43 269.804 416.321C269.804 389.147 269.354 361.973 269.804 334.8C269.804 323.338 265.426 319.732 254.415 319.86C214.684 320.44 174.954 320.182 135.159 320.247ZM163.428 480.52H70.2516C66.8388 480.52 62.3957 479.103 60.5927 482.967C58.7897 486.831 62.9109 489.406 65.0358 491.789C96.576 529.875 138.09 558.436 184.935 574.276C207.73 582.389 231.62 584.579 255.123 588.893C266.842 591.082 269.547 589.666 269.611 577.753V495.202C269.611 483.611 264.911 480.198 254.028 480.327C224.021 480.778 193.692 480.52 163.428 480.52Z" fill="#FF9900"/>
<mask id="mask0_1_95" style="mask-type:luminance" maskUnits="userSpaceOnUse" x="697" y="177" width="1781" height="412">
<path d="M989.077 202.076V466.358C989.077 470.161 988.4 473.677 987.045 476.907C985.691 480.137 983.789 482.95 981.341 485.347C978.944 487.691 976.105 489.54 972.823 490.895C969.593 492.249 966.155 492.926 962.508 492.926H843.652C832.399 492.926 821.042 491.702 809.581 489.254C798.068 486.857 786.946 483.106 776.214 478.001C765.43 472.948 755.323 466.488 745.894 458.621C736.413 450.807 728.13 441.508 721.044 430.724C713.907 419.992 708.333 407.698 704.322 393.84C700.258 379.983 698.227 364.537 698.227 347.501V202.076H750.973V347.501C750.973 362.349 753.031 374.93 757.147 385.245C761.262 395.507 766.498 404.077 772.854 410.954C779.209 417.883 786.164 423.301 793.718 427.208C801.324 431.115 808.539 434.032 815.364 435.96C822.188 437.835 828.205 439.007 833.415 439.476C838.625 439.945 842.037 440.18 843.652 440.18H936.33V202.076H989.077ZM1340.96 266.154V299.834C1340.96 311.868 1339.47 322.626 1336.5 332.107C1333.53 341.536 1329.52 349.872 1324.47 357.113C1319.42 364.354 1313.56 370.554 1306.89 375.711C1300.27 380.816 1293.34 385.036 1286.1 388.37C1278.86 391.704 1271.57 394.101 1264.22 395.56C1256.88 397.07 1249.95 397.826 1243.43 397.826L1353.54 492.926H1272.04L1162.09 397.826H1124.19V345.079H1243.43C1250.05 344.506 1256.09 343.125 1261.56 340.937C1267.03 338.697 1271.77 335.675 1275.79 331.872C1279.8 328.07 1282.87 323.511 1285.01 318.197C1287.19 312.832 1288.29 306.71 1288.29 299.834V266.544C1288.29 263.575 1287.9 261.309 1287.12 259.746C1286.39 258.183 1285.45 257.037 1284.3 256.308C1283.16 255.578 1281.93 255.135 1280.63 254.979C1279.38 254.875 1278.21 254.823 1277.11 254.823H1103.09V492.926H1050.34V228.645C1050.34 224.998 1051.02 221.534 1052.37 218.252C1053.73 215.022 1055.58 212.183 1057.92 209.734C1060.32 207.338 1063.13 205.462 1066.36 204.108C1069.59 202.753 1073.11 202.076 1076.91 202.076H1277.11C1288.89 202.076 1298.81 204.212 1306.89 208.484C1315.01 212.703 1321.6 218.043 1326.66 224.503C1331.76 230.911 1335.44 237.84 1337.68 245.289C1339.86 252.687 1340.96 259.642 1340.96 266.154ZM1661.03 440.18V492.926H1420.51C1416.7 492.926 1413.19 492.249 1409.96 490.895C1406.73 489.54 1403.92 487.691 1401.52 485.347C1399.17 482.95 1397.33 480.137 1395.97 476.907C1394.62 473.677 1393.94 470.161 1393.94 466.358V202.076H1446.69V440.18H1661.03ZM1957.82 440.18V492.926H1690.65V395.325C1690.65 390.324 1691.25 385.036 1692.45 379.462C1693.59 373.836 1695.37 368.261 1697.76 362.739C1700.21 357.165 1703.36 351.877 1707.22 346.876C1711.07 341.875 1715.73 337.447 1721.2 333.592C1726.67 329.737 1733 326.663 1740.19 324.371C1747.33 322.079 1755.43 320.932 1764.5 320.932H1883.35C1890.54 320.932 1895.86 319.135 1899.29 315.54C1902.73 311.946 1904.45 306.71 1904.45 299.834V276.469C1904.45 269.332 1902.71 263.94 1899.22 260.293C1895.67 256.646 1890.54 254.823 1883.82 254.823H1714.41V202.076H1883.82C1892.73 202.076 1900.75 203.222 1907.89 205.514C1915.08 207.807 1921.41 210.88 1926.88 214.735C1932.35 218.59 1937.06 223.018 1941.02 228.02C1944.93 233.021 1948.13 238.256 1950.63 243.727C1953.13 249.197 1954.96 254.745 1956.1 260.371C1957.25 265.997 1957.82 271.233 1957.82 276.078V299.834C1957.82 313.483 1955.35 324.996 1950.4 334.373C1945.5 343.802 1939.33 351.46 1931.88 357.347C1924.43 363.234 1916.41 367.48 1907.81 370.085C1899.22 372.742 1891.22 374.07 1883.82 374.07H1764.5C1760.17 374.07 1756.73 374.669 1754.18 375.867C1751.63 377.118 1749.62 378.759 1748.16 380.79C1746.76 382.822 1745.72 385.114 1745.04 387.667C1744.36 390.22 1743.81 392.772 1743.4 395.325V440.18H1957.82ZM2200.62 273.656V326.402H2081.37V273.656H2200.62ZM2200.62 178.555V231.302H2081.76C2074.57 231.302 2069.15 233.073 2065.51 236.615C2061.86 240.21 2060.04 245.446 2060.04 252.322V492.926H2007.29V252.322C2007.29 243.31 2008.43 235.209 2010.73 228.02C2013.07 220.83 2016.17 214.501 2020.03 209.031C2023.88 203.561 2028.31 198.898 2033.31 195.043C2038.31 191.188 2043.55 188.062 2049.02 185.666C2054.49 183.217 2059.98 181.42 2065.51 180.274C2071.08 179.128 2076.37 178.555 2081.37 178.555H2200.62ZM2476.85 273.656V514.025C2476.85 523.09 2475.71 531.243 2473.41 538.484C2471.12 545.725 2468.08 552.081 2464.27 557.551C2460.52 563.021 2456.15 567.684 2451.14 571.539C2446.14 575.394 2440.91 578.546 2435.44 580.994C2429.92 583.391 2424.39 585.162 2418.87 586.308C2413.35 587.454 2408.09 588.027 2403.09 588.027H2307.91V535.358H2403.09C2410.12 535.358 2415.38 533.509 2418.87 529.81C2422.41 526.164 2424.18 520.902 2424.18 514.025V273.656H2476.85ZM2403.09 440.18V492.926H2307.91C2300.35 492.926 2292.28 491.65 2283.68 489.097C2275.09 486.493 2267.06 482.247 2259.61 476.36C2252.22 470.525 2246.07 462.893 2241.17 453.464C2236.33 444.087 2233.9 432.574 2233.9 418.924V273.656H2286.65V418.924C2286.65 425.801 2288.48 431.063 2292.12 434.709C2295.77 438.356 2301.16 440.18 2308.3 440.18H2403.09Z" fill="white" stroke="black" stroke-width="1.5" stroke-linecap="round" stroke-linejoin="round"/>
</mask>
<g mask="url(#mask0_1_95)">
<path d="M989.077 202.076V466.358C989.077 470.161 988.4 473.677 987.045 476.907C985.691 480.137 983.789 482.95 981.341 485.347C978.944 487.691 976.105 489.54 972.823 490.895C969.593 492.249 966.155 492.926 962.508 492.926H843.652C832.399 492.926 821.042 491.702 809.581 489.254C798.068 486.857 786.946 483.106 776.214 478.001C765.43 472.948 755.323 466.488 745.894 458.621C736.413 450.807 728.13 441.508 721.044 430.724C713.907 419.992 708.333 407.698 704.322 393.84C700.258 379.983 698.227 364.537 698.227 347.501V202.076H750.973V347.501C750.973 362.349 753.031 374.93 757.147 385.245C761.262 395.507 766.498 404.077 772.854 410.954C779.209 417.883 786.164 423.301 793.718 427.208C801.324 431.115 808.539 434.032 815.364 435.96C822.188 437.835 828.205 439.007 833.415 439.476C838.625 439.945 842.037 440.18 843.652 440.18H936.33V202.076H989.077ZM1340.96 266.154V299.834C1340.96 311.868 1339.47 322.626 1336.5 332.107C1333.53 341.536 1329.52 349.872 1324.47 357.113C1319.42 364.354 1313.56 370.554 1306.89 375.711C1300.27 380.816 1293.34 385.036 1286.1 388.37C1278.86 391.704 1271.57 394.101 1264.22 395.56C1256.88 397.07 1249.95 397.826 1243.43 397.826L1353.54 492.926H1272.04L1162.09 397.826H1124.19V345.079H1243.43C1250.05 344.506 1256.09 343.125 1261.56 340.937C1267.03 338.697 1271.77 335.675 1275.79 331.872C1279.8 328.07 1282.87 323.511 1285.01 318.197C1287.19 312.832 1288.29 306.71 1288.29 299.834V266.544C1288.29 263.575 1287.9 261.309 1287.12 259.746C1286.39 258.183 1285.45 257.037 1284.3 256.308C1283.16 255.578 1281.93 255.135 1280.63 254.979C1279.38 254.875 1278.21 254.823 1277.11 254.823H1103.09V492.926H1050.34V228.645C1050.34 224.998 1051.02 221.534 1052.37 218.252C1053.73 215.022 1055.58 212.183 1057.92 209.734C1060.32 207.338 1063.13 205.462 1066.36 204.108C1069.59 202.753 1073.11 202.076 1076.91 202.076H1277.11C1288.89 202.076 1298.81 204.212 1306.89 208.484C1315.01 212.703 1321.6 218.043 1326.66 224.503C1331.76 230.911 1335.44 237.84 1337.68 245.289C1339.86 252.687 1340.96 259.642 1340.96 266.154ZM1661.03 440.18V492.926H1420.51C1416.7 492.926 1413.19 492.249 1409.96 490.895C1406.73 489.54 1403.92 487.691 1401.52 485.347C1399.17 482.95 1397.33 480.137 1395.97 476.907C1394.62 473.677 1393.94 470.161 1393.94 466.358V202.076H1446.69V440.18H1661.03ZM1957.82 440.18V492.926H1690.65V395.325C1690.65 390.324 1691.25 385.036 1692.45 379.462C1693.59 373.836 1695.37 368.261 1697.76 362.739C1700.21 357.165 1703.36 351.877 1707.22 346.876C1711.07 341.875 1715.73 337.447 1721.2 333.592C1726.67 329.737 1733 326.663 1740.19 324.371C1747.33 322.079 1755.43 320.932 1764.5 320.932H1883.35C1890.54 320.932 1895.86 319.135 1899.29 315.54C1902.73 311.946 1904.45 306.71 1904.45 299.834V276.469C1904.45 269.332 1902.71 263.94 1899.22 260.293C1895.67 256.646 1890.54 254.823 1883.82 254.823H1714.41V202.076H1883.82C1892.73 202.076 1900.75 203.222 1907.89 205.514C1915.08 207.807 1921.41 210.88 1926.88 214.735C1932.35 218.59 1937.06 223.018 1941.02 228.02C1944.93 233.021 1948.13 238.256 1950.63 243.727C1953.13 249.197 1954.96 254.745 1956.1 260.371C1957.25 265.997 1957.82 271.233 1957.82 276.078V299.834C1957.82 313.483 1955.35 324.996 1950.4 334.373C1945.5 343.802 1939.33 351.46 1931.88 357.347C1924.43 363.234 1916.41 367.48 1907.81 370.085C1899.22 372.742 1891.22 374.07 1883.82 374.07H1764.5C1760.17 374.07 1756.73 374.669 1754.18 375.867C1751.63 377.118 1749.62 378.759 1748.16 380.79C1746.76 382.822 1745.72 385.114 1745.04 387.667C1744.36 390.22 1743.81 392.772 1743.4 395.325V440.18H1957.82ZM2200.62 273.656V326.402H2081.37V273.656H2200.62ZM2200.62 178.555V231.302H2081.76C2074.57 231.302 2069.15 233.073 2065.51 236.615C2061.86 240.21 2060.04 245.446 2060.04 252.322V492.926H2007.29V252.322C2007.29 243.31 2008.43 235.209 2010.73 228.02C2013.07 220.83 2016.17 214.501 2020.03 209.031C2023.88 203.561 2028.31 198.898 2033.31 195.043C2038.31 191.188 2043.55 188.062 2049.02 185.666C2054.49 183.217 2059.98 181.42 2065.51 180.274C2071.08 179.128 2076.37 178.555 2081.37 178.555H2200.62ZM2476.85 273.656V514.025C2476.85 523.09 2475.71 531.243 2473.41 538.484C2471.12 545.725 2468.08 552.081 2464.27 557.551C2460.52 563.021 2456.15 567.684 2451.14 571.539C2446.14 575.394 2440.91 578.546 2435.44 580.994C2429.92 583.391 2424.39 585.162 2418.87 586.308C2413.35 587.454 2408.09 588.027 2403.09 588.027H2307.91V535.358H2403.09C2410.12 535.358 2415.38 533.509 2418.87 529.81C2422.41 526.164 2424.18 520.902 2424.18 514.025V273.656H2476.85ZM2403.09 440.18V492.926H2307.91C2300.35 492.926 2292.28 491.65 2283.68 489.097C2275.09 486.493 2267.06 482.247 2259.61 476.36C2252.22 470.525 2246.07 462.893 2241.17 453.464C2236.33 444.087 2233.9 432.574 2233.9 418.924V273.656H2286.65V418.924C2286.65 425.801 2288.48 431.063 2292.12 434.709C2295.77 438.356 2301.16 440.18 2308.3 440.18H2403.09Z" fill="white"/>
</g>
</svg>
