<svg data-v-6805eed4="" version="1.0" xmlns="http://www.w3.org/2000/svg" xmlns:xlink="http://www.w3.org/1999/xlink" width="100%" height="100%" viewBox="0 0 340.000000 250.000000" preserveAspectRatio="xMidYMid meet" color-interpolation-filters="sRGB" style="margin: auto;"> <rect data-v-6805eed4="" x="0" y="0" width="100%" height="100%" fill="#FFFFFF" fill-opacity="1" class="background"></rect> <rect data-v-6805eed4="" x="0" y="0" width="100%" height="100%" fill="url(#watermark)" fill-opacity="1" class="watermarklayer"></rect> <g data-v-6805eed4="" fill="#FFFFFF" class="icon-text-wrapper icon-svg-group iconsvg" transform="translate(22.69500732421875,95.0553970336914)"><g class="iconsvg-imagesvg" transform="translate(0,0)"><g><rect fill="#FFFFFF" fill-opacity="0" stroke-width="2" x="0" y="0" width="60" height="59.889204970804016" class="image-rect"></rect> <svg x="0" y="0" width="60" height="59.889204970804016" filtersec="colorsb3164984499" class="image-svg-svg primary" style="overflow: visible;"><svg xmlns="http://www.w3.org/2000/svg" viewBox="-0.0009474754333496094 0 91.69158935546875 91.52191925048828"><title>资源 67</title><path d="M74.53 27.3v22.37a23.76 23.76 0 0 1-.66 5.61A25.82 25.82 0 0 1 51.61 74.5c-1.08.11-1.74.48-1.75 1.65v13.93c0 1.21.65 1.61 1.81 1.38s2.51-.49 3.78-.65a40 40 0 0 0 21.92-10.19C86.76 72.21 91.32 61.43 91.55 49c.27-15.52.07-31 .06-46.58C91.61.25 91.39 0 89.15 0h-12.1c-2.34 0-2.51.18-2.51 2.51q-.01 12.41-.01 24.79z" fill="#3D85C6"></path><path d="M66.72 26.1V2.45C66.71.24 66.51 0 64.29 0H52.92c-3 0-3.08.07-3.08 3.09V63.8c0 .55 0 1.1.06 1.65.08.93.62 1.26 1.52 1.07A18.75 18.75 0 0 0 59.75 63a18.41 18.41 0 0 0 7-15.06Q66.72 37 66.72 26.1z" fill="#3D85C6"></path><path d="M20.83 16.92h18.69c1.63 0 2.32-.6 2.3-2.27q-.09-6.13 0-12.27C41.85.69 41.24 0 39.48 0q-18.6.06-37.2 0C.64 0 0 .58 0 2.25c.07 4 0 8.06 0 12.1 0 2.37.21 2.56 2.66 2.57zM20.89 24.93H2.38c-1.73 0-2.41.6-2.38 2.35.08 4 0 8.07 0 12.1 0 2.24.21 2.46 2.39 2.46h37c1.71 0 2.43-.58 2.4-2.34-.08-3.85 0-7.7 0-11.55 0-2.92-.1-3-3-3zM20.91 49.63H2.2c-1.35 0-2.37.29-2.15 1.92A51.77 51.77 0 0 0 3.22 65a2.53 2.53 0 0 0 2.67 1.71h33.75c1.58 0 2.2-.59 2.18-2.16 0-4.22-.07-8.44 0-12.66 0-1.78-.68-2.34-2.39-2.32-6.17.09-12.34.05-18.52.06zM25.3 74.52H10.83c-.53 0-1.22-.22-1.5.38s.36 1 .69 1.37a41.39 41.39 0 0 0 18.62 12.81c3.54 1.26 7.25 1.6 10.9 2.27 1.82.34 2.24.12 2.25-1.73V76.8c0-1.8-.73-2.33-2.42-2.31-4.66.07-9.37.03-14.07.03z" fill="#FF9900"></path></svg></svg> <!----></g></g> <g transform="translate(67,3.7446022033691406)"><g fill-rule="" class="iconsvg-namesvg tp-name"><g transform="scale(1)"><g><g mask="url(#SF_gYTcrkziDwbrc2jRL8)" filter="url(#text-effect-stroke-shadow-S76aCt4ipbz34b2Gu2Gt4)" stroke="black" stroke-width="1.5" stroke-linecap="round" stroke-linejoin="round" paint-order="stroke" data-gra-ignore-stroke="true"><path d="M40.39-37.22L40.39-3.4Q40.39-2.67 40.13-2.05 39.87-1.43 39.4-0.97 38.94-0.52 38.31-0.26 37.69 0 36.99 0L36.99 0 21.78 0Q19.62 0 17.42-0.47 15.21-0.93 13.15-1.91 11.08-2.88 9.27-4.39 7.45-5.89 6.09-7.96 4.72-10.02 3.95-12.68 3.17-15.34 3.17-18.61L3.17-18.61 3.17-37.22 9.92-37.22 9.92-18.61Q9.92-15.76 10.71-13.78 11.5-11.81 12.72-10.49 13.94-9.16 15.39-8.41 16.85-7.66 18.16-7.29 19.47-6.93 20.47-6.84 21.47-6.75 21.78-6.75L21.78-6.75 33.64-6.75 33.64-37.22 40.39-37.22ZM85.42-29.02L85.42-24.71Q85.42-22.4 84.85-20.58 84.28-18.77 83.31-17.38 82.34-15.99 81.06-15 79.79-14.02 78.4-13.38 77.01-12.74 75.6-12.46 74.19-12.17 72.94-12.17L72.94-12.17 87.03 0 76.6 0 62.53-12.17 57.68-12.17 57.68-18.92 72.94-18.92Q74.21-19.03 75.26-19.45 76.31-19.88 77.08-20.61 77.85-21.34 78.26-22.36 78.68-23.39 78.68-24.71L78.68-24.71 78.68-28.97Q78.68-29.54 78.53-29.84 78.39-30.14 78.17-30.28 77.95-30.42 77.7-30.45 77.46-30.47 77.25-30.47L77.25-30.47 54.98-30.47 54.98 0 48.23 0 48.23-33.82Q48.23-34.52 48.49-35.15 48.75-35.77 49.2-36.24 49.66-36.7 50.28-36.96 50.9-37.22 51.63-37.22L51.63-37.22 77.25-37.22Q79.51-37.22 81.06-36.4 82.62-35.59 83.59-34.35 84.57-33.12 85-31.69 85.42-30.27 85.42-29.02L85.42-29.02ZM126.38-6.75L126.38 0 95.6 0Q94.87 0 94.25-0.26 93.63-0.52 93.17-0.97 92.72-1.43 92.46-2.05 92.2-2.67 92.2-3.4L92.2-3.4 92.2-37.22 98.95-37.22 98.95-6.75 126.38-6.75ZM164.36-6.75L164.36 0 130.17 0 130.17-12.49Q130.17-13.45 130.4-14.52 130.62-15.6 131.08-16.66 131.55-17.73 132.29-18.69 133.03-19.65 134.08-20.39 135.13-21.13 136.51-21.57 137.88-22.01 139.62-22.01L139.62-22.01 154.83-22.01Q156.21-22.01 156.87-22.7 157.53-23.39 157.53-24.71L157.53-24.71 157.53-27.7Q157.53-29.07 156.86-29.77 156.18-30.47 154.89-30.47L154.89-30.47 133.21-30.47 133.21-37.22 154.89-37.22Q156.6-37.22 157.97-36.78 159.35-36.34 160.4-35.6 161.45-34.86 162.21-33.9 162.96-32.94 163.44-31.89 163.92-30.84 164.14-29.76 164.36-28.68 164.36-27.75L164.36-27.75 164.36-24.71Q164.36-22.09 163.41-20.29 162.47-18.48 161.04-17.35 159.61-16.22 157.96-15.72 156.31-15.21 154.89-15.21L154.89-15.21 139.62-15.21Q138.79-15.21 138.3-14.98 137.81-14.74 137.53-14.35 137.26-13.96 137.13-13.47 137-12.98 136.92-12.49L136.92-12.49 136.92-6.75 164.36-6.75ZM195.43-28.06L195.43-21.31 180.17-21.31 180.17-28.06 195.43-28.06ZM195.43-40.23L195.43-33.48 180.22-33.48Q178.84-33.48 178.14-32.8 177.44-32.11 177.44-30.79L177.44-30.79 177.44 0 170.69 0 170.69-30.79Q170.69-32.52 171.13-33.9 171.58-35.28 172.32-36.33 173.06-37.38 174.02-38.12 174.98-38.86 176.03-39.32 177.08-39.79 178.14-40.01 179.21-40.23 180.17-40.23L180.17-40.23 195.43-40.23ZM230.78-28.06L230.78 2.7Q230.78 4.44 230.34 5.83 229.9 7.22 229.17 8.27 228.45 9.32 227.49 10.06 226.53 10.8 225.48 11.27 224.42 11.73 223.36 11.95 222.3 12.17 221.34 12.17L221.34 12.17 209.16 12.17 209.16 5.43 221.34 5.43Q222.69 5.43 223.36 4.72 224.04 4.02 224.04 2.7L224.04 2.7 224.04-28.06 230.78-28.06ZM221.34-6.75L221.34 0 209.16 0Q207.71 0 206.06-0.49 204.41-0.99 202.98-2.12 201.56-3.24 200.62-5.05 199.69-6.85 199.69-9.47L199.69-9.47 199.69-28.06 206.44-28.06 206.44-9.47Q206.44-8.15 207.14-7.45 207.84-6.75 209.21-6.75L209.21-6.75 221.34-6.75Z" transform="translate(-3.1700000762939453, 40.22999954223633)"></path></g><defs><filter id="text-effect-stroke-shadow-S76aCt4ipbz34b2Gu2Gt4" filterUnits="objectBoundingBox" width="2" height="2" x="-0.2" y="-0.2"><feDropShadow dx="1.5" dy="1.5" stdDeviation="0" flood-color="#3D85C6" flood-opacity="1"></feDropShadow></filter><filter id="text-effect-stroke-shadow-mask-S76aCt4ipbz34b2Gu2Gt4" filterUnits="objectBoundingBox" width="2" height="2" x="-0.2" y="-0.2"><feDropShadow dx="1.5" dy="1.5" stdDeviation="0" flood-color="white" flood-opacity="1"></feDropShadow></filter><mask id="SF_gYTcrkziDwbrc2jRL8"><g filter="url(#text-effect-stroke-shadow-mask-S76aCt4ipbz34b2Gu2Gt4)" stroke="black" stroke-width="1.5" stroke-linecap="round" stroke-linejoin="round" paint-order="stroke" data-gra-ignore-stroke="true" data-gra-ignore-fill="true" fill="white"><path d="M40.39-37.22L40.39-3.4Q40.39-2.67 40.13-2.05 39.87-1.43 39.4-0.97 38.94-0.52 38.31-0.26 37.69 0 36.99 0L36.99 0 21.78 0Q19.62 0 17.42-0.47 15.21-0.93 13.15-1.91 11.08-2.88 9.27-4.39 7.45-5.89 6.09-7.96 4.72-10.02 3.95-12.68 3.17-15.34 3.17-18.61L3.17-18.61 3.17-37.22 9.92-37.22 9.92-18.61Q9.92-15.76 10.71-13.78 11.5-11.81 12.72-10.49 13.94-9.16 15.39-8.41 16.85-7.66 18.16-7.29 19.47-6.93 20.47-6.84 21.47-6.75 21.78-6.75L21.78-6.75 33.64-6.75 33.64-37.22 40.39-37.22ZM85.42-29.02L85.42-24.71Q85.42-22.4 84.85-20.58 84.28-18.77 83.31-17.38 82.34-15.99 81.06-15 79.79-14.02 78.4-13.38 77.01-12.74 75.6-12.46 74.19-12.17 72.94-12.17L72.94-12.17 87.03 0 76.6 0 62.53-12.17 57.68-12.17 57.68-18.92 72.94-18.92Q74.21-19.03 75.26-19.45 76.31-19.88 77.08-20.61 77.85-21.34 78.26-22.36 78.68-23.39 78.68-24.71L78.68-24.71 78.68-28.97Q78.68-29.54 78.53-29.84 78.39-30.14 78.17-30.28 77.95-30.42 77.7-30.45 77.46-30.47 77.25-30.47L77.25-30.47 54.98-30.47 54.98 0 48.23 0 48.23-33.82Q48.23-34.52 48.49-35.15 48.75-35.77 49.2-36.24 49.66-36.7 50.28-36.96 50.9-37.22 51.63-37.22L51.63-37.22 77.25-37.22Q79.51-37.22 81.06-36.4 82.62-35.59 83.59-34.35 84.57-33.12 85-31.69 85.42-30.27 85.42-29.02L85.42-29.02ZM126.38-6.75L126.38 0 95.6 0Q94.87 0 94.25-0.26 93.63-0.52 93.17-0.97 92.72-1.43 92.46-2.05 92.2-2.67 92.2-3.4L92.2-3.4 92.2-37.22 98.95-37.22 98.95-6.75 126.38-6.75ZM164.36-6.75L164.36 0 130.17 0 130.17-12.49Q130.17-13.45 130.4-14.52 130.62-15.6 131.08-16.66 131.55-17.73 132.29-18.69 133.03-19.65 134.08-20.39 135.13-21.13 136.51-21.57 137.88-22.01 139.62-22.01L139.62-22.01 154.83-22.01Q156.21-22.01 156.87-22.7 157.53-23.39 157.53-24.71L157.53-24.71 157.53-27.7Q157.53-29.07 156.86-29.77 156.18-30.47 154.89-30.47L154.89-30.47 133.21-30.47 133.21-37.22 154.89-37.22Q156.6-37.22 157.97-36.78 159.35-36.34 160.4-35.6 161.45-34.86 162.21-33.9 162.96-32.94 163.44-31.89 163.92-30.84 164.14-29.76 164.36-28.68 164.36-27.75L164.36-27.75 164.36-24.71Q164.36-22.09 163.41-20.29 162.47-18.48 161.04-17.35 159.61-16.22 157.96-15.72 156.31-15.21 154.89-15.21L154.89-15.21 139.62-15.21Q138.79-15.21 138.3-14.98 137.81-14.74 137.53-14.35 137.26-13.96 137.13-13.47 137-12.98 136.92-12.49L136.92-12.49 136.92-6.75 164.36-6.75ZM195.43-28.06L195.43-21.31 180.17-21.31 180.17-28.06 195.43-28.06ZM195.43-40.23L195.43-33.48 180.22-33.48Q178.84-33.48 178.14-32.8 177.44-32.11 177.44-30.79L177.44-30.79 177.44 0 170.69 0 170.69-30.79Q170.69-32.52 171.13-33.9 171.58-35.28 172.32-36.33 173.06-37.38 174.02-38.12 174.98-38.86 176.03-39.32 177.08-39.79 178.14-40.01 179.21-40.23 180.17-40.23L180.17-40.23 195.43-40.23ZM230.78-28.06L230.78 2.7Q230.78 4.44 230.34 5.83 229.9 7.22 229.17 8.27 228.45 9.32 227.49 10.06 226.53 10.8 225.48 11.27 224.42 11.73 223.36 11.95 222.3 12.17 221.34 12.17L221.34 12.17 209.16 12.17 209.16 5.43 221.34 5.43Q222.69 5.43 223.36 4.72 224.04 4.02 224.04 2.7L224.04 2.7 224.04-28.06 230.78-28.06ZM221.34-6.75L221.34 0 209.16 0Q207.71 0 206.06-0.49 204.41-0.99 202.98-2.12 201.56-3.24 200.62-5.05 199.69-6.85 199.69-9.47L199.69-9.47 199.69-28.06 206.44-28.06 206.44-9.47Q206.44-8.15 207.14-7.45 207.84-6.75 209.21-6.75L209.21-6.75 221.34-6.75Z" transform="translate(-3.1700000762939453, 40.22999954223633)"></path></g></mask></defs></g></g></g> <!----></g></g><defs v-gra="od"></defs></svg>