<svg data-v-6805eed4="" version="1.0" xmlns="http://www.w3.org/2000/svg" xmlns:xlink="http://www.w3.org/1999/xlink" width="100%" height="100%" viewBox="0 0 340.000000 250.000000" preserveAspectRatio="xMidYMid meet" color-interpolation-filters="sRGB" style="margin: auto;"> <rect data-v-6805eed4="" x="0" y="0" width="100%" height="100%" fill="#FFFFFF" fill-opacity="1" class="background"></rect> <rect data-v-6805eed4="" x="0" y="0" width="100%" height="100%" fill="url(#watermark)" fill-opacity="1" class="watermarklayer"></rect> <g data-v-6805eed4="" fill="#FFFFFF" class="icon-text-wrapper icon-svg-group iconsvg" transform="translate(140,95.0553970336914)"><g class="iconsvg-imagesvg" transform="translate(0,0)"><g><rect fill="#FFFFFF" fill-opacity="0" stroke-width="2" x="0" y="0" width="60" height="59.889204970804016" class="image-rect"></rect> <svg x="0" y="0" width="60" height="59.889204970804016" filtersec="colorsb4465121450" class="image-svg-svg primary" style="overflow: visible;"><svg xmlns="http://www.w3.org/2000/svg" viewBox="-0.0009474754333496094 0 91.69158935546875 91.52191925048828"><title>资源 67</title><path d="M74.53 27.3v22.37a23.76 23.76 0 0 1-.66 5.61A25.82 25.82 0 0 1 51.61 74.5c-1.08.11-1.74.48-1.75 1.65v13.93c0 1.21.65 1.61 1.81 1.38s2.51-.49 3.78-.65a40 40 0 0 0 21.92-10.19C86.76 72.21 91.32 61.43 91.55 49c.27-15.52.07-31 .06-46.58C91.61.25 91.39 0 89.15 0h-12.1c-2.34 0-2.51.18-2.51 2.51q-.01 12.41-.01 24.79z" fill="#3D85C6"></path><path d="M66.72 26.1V2.45C66.71.24 66.51 0 64.29 0H52.92c-3 0-3.08.07-3.08 3.09V63.8c0 .55 0 1.1.06 1.65.08.93.62 1.26 1.52 1.07A18.75 18.75 0 0 0 59.75 63a18.41 18.41 0 0 0 7-15.06Q66.72 37 66.72 26.1z" fill="#3D85C6"></path><path d="M20.83 16.92h18.69c1.63 0 2.32-.6 2.3-2.27q-.09-6.13 0-12.27C41.85.69 41.24 0 39.48 0q-18.6.06-37.2 0C.64 0 0 .58 0 2.25c.07 4 0 8.06 0 12.1 0 2.37.21 2.56 2.66 2.57zM20.89 24.93H2.38c-1.73 0-2.41.6-2.38 2.35.08 4 0 8.07 0 12.1 0 2.24.21 2.46 2.39 2.46h37c1.71 0 2.43-.58 2.4-2.34-.08-3.85 0-7.7 0-11.55 0-2.92-.1-3-3-3zM20.91 49.63H2.2c-1.35 0-2.37.29-2.15 1.92A51.77 51.77 0 0 0 3.22 65a2.53 2.53 0 0 0 2.67 1.71h33.75c1.58 0 2.2-.59 2.18-2.16 0-4.22-.07-8.44 0-12.66 0-1.78-.68-2.34-2.39-2.32-6.17.09-12.34.05-18.52.06zM25.3 74.52H10.83c-.53 0-1.22-.22-1.5.38s.36 1 .69 1.37a41.39 41.39 0 0 0 18.62 12.81c3.54 1.26 7.25 1.6 10.9 2.27 1.82.34 2.24.12 2.25-1.73V76.8c0-1.8-.73-2.33-2.42-2.31-4.66.07-9.37.03-14.07.03z" fill="#FF9900"></path></svg></svg> <!----></g></g> <g transform="translate(67,29.944602966308594)"><g fill-rule="" class="iconsvg-namesvg tp-name"><g transform="scale(1)"></g></g> <!----></g></g><defs v-gra="od"></defs></svg>