<svg class="svgIcon_1mk0VI svg-icon" data-qa-tag="uploader-drop-zone-icon" xmlns="http://www.w3.org/2000/svg" viewBox="0 0 48 48" style="width: 100%; height: 100%;"><g fill="none" fill-rule="evenodd"><path fill="#414141" d="M40 33.5V23H25v23h13-28a2 2 0 0 1-2-2V4a2 2 0 0 1 2-2h21a1 1 0 0 1 1 1v6a1 1 0 0 0 1 1h6a1 1 0 0 1 1 1v22.5z"></path><circle cx="39" cy="23" r="1" fill="#414141"></circle><path fill="#FFF" d="M38 12h-5a3 3 0 0 1-3-3V4H10v40h28V12z"></path><path fill="gray" fill-rule="nonzero" d="M14 13h11a1 1 0 0 1 0 2H14a1 1 0 0 1 0-2zm0 4h20a1 1 0 0 1 0 2H14a1 1 0 0 1 0-2zm0 4h20a1 1 0 0 1 0 2H14a1 1 0 0 1 0-2zm0 4h13a1 1 0 0 1 0 2H14a1 1 0 0 1 0-2zm0 4h10a1 1 0 0 1 0 2H14a1 1 0 0 1 0-2zm0 4h8a1 1 0 0 1 0 2h-8a1 1 0 0 1 0-2z"></path><path fill="#414141" fill-rule="nonzero" d="M31.707 2.293l8 8c.63.63.184 1.707-.707 1.707h-8a1 1 0 0 1-1-1V3c0-.89 1.077-1.337 1.707-.707z"></path><path fill="#FFF" d="M32 10h4.586L32 5.414zm4 38c-6.627 0-12-5.373-12-12s5.373-12 12-12 12 5.373 12 12-5.373 12-12 12z"></path><path fill="#2192EF" fill-rule="nonzero" d="M35 33.414l-3.293 3.293a1 1 0 0 1-1.414-1.414l5-5a1 1 0 0 1 1.414 0l5 5a1 1 0 0 1-1.414 1.414L37 33.414V42a1 1 0 0 1-2 0v-8.586z"></path><circle cx="25" cy="45" r="1" fill="#414141"></circle></g></svg>
