<svg width="104" height="24" viewBox="0 0 104 24" fill="none" xmlns="http://www.w3.org/2000/svg">
<path d="M8.97925 2.12258C8.55532 2.04411 8.1057 2 7.63232 2H0.0373535V22.8139H7.63232C13.2873 22.8139 16.1147 20.1825 16.1147 14.93V9.8838C16.1147 9.85061 16.1146 9.81786 16.1144 9.78553H12.3276V15.095C12.3276 17.809 10.79 19.1608 7.69424 19.1608H3.7626V5.44653H7.69424C8.15744 5.44653 8.58575 5.47702 8.97925 5.53797V2.12258Z" fill="#171717"/>
<path d="M12.2413 8.48553C12.0189 7.24613 11.3659 6.38501 10.2792 5.90367V2.89265L15.7536 8.36698L15.9207 8.42887L15.9774 8.48553H12.2413Z" fill="#171717"/>
<path d="M19.0068 15.2423C19.0068 14.0788 19.1804 13.0212 19.539 12.0693C19.8861 11.1174 20.3836 10.3066 21.0315 9.63672C21.6794 8.97862 22.4661 8.46155 23.3685 8.0855C24.2709 7.7212 25.289 7.54492 26.4228 7.54492C27.5566 7.54492 28.5747 7.7212 29.4887 8.0855C30.4027 8.46155 31.1894 8.97862 31.8373 9.63672C32.4851 10.3066 32.9826 11.1174 33.3413 12.0693C33.6884 13.0212 33.8619 14.0788 33.8619 15.2423C33.8619 16.4057 33.6884 17.4633 33.3413 18.4035C32.9826 19.3436 32.4851 20.1427 31.8373 20.8125C31.1894 21.4824 30.4027 21.9877 29.4887 22.352C28.5747 22.7046 27.5566 22.8808 26.4228 22.8808C25.289 22.8808 24.2709 22.7046 23.3685 22.352C22.4661 21.9877 21.6794 21.4824 21.0315 20.8125C20.3836 20.1427 19.8861 19.3436 19.539 18.4035C19.1804 17.4633 19.0068 16.4057 19.0068 15.2423ZM22.952 15.3537C22.952 15.9295 23.0098 16.5054 23.114 17.0577C23.2297 17.61 23.4148 18.1153 23.6924 18.5501C23.9585 18.9967 24.3172 19.3493 24.7568 19.6078C25.1964 19.8781 25.7518 20.0074 26.4228 20.0074C27.0938 20.0074 27.6492 19.8781 28.1004 19.6078C28.5516 19.3493 28.9218 18.9967 29.1879 18.5501C29.454 18.1153 29.6391 17.61 29.7548 17.0577C29.8705 16.5054 29.9167 15.9295 29.9167 15.3537C29.9167 14.7661 29.8705 14.1903 29.7548 13.6262C29.6391 13.0621 29.454 12.5686 29.1879 12.1337C28.9218 11.6989 28.5516 11.3464 28.1004 11.0761C27.6492 10.8058 27.0938 10.6648 26.4228 10.6648C25.7518 10.6648 25.1964 10.8058 24.7568 11.0761C24.3172 11.3464 23.9585 11.6989 23.6924 12.1337C23.4148 12.5686 23.2297 13.0621 23.114 13.6262C23.0098 14.1903 22.952 14.7661 22.952 15.3537Z" fill="#171717"/>
<path d="M46.1943 13.0682H50.0469C50.0006 12.1281 49.7692 11.3172 49.3874 10.6239C48.9941 9.94226 48.4966 9.36643 47.8718 8.90811C47.2471 8.4498 46.5529 8.109 45.7662 7.87397C44.9795 7.65069 44.1581 7.54492 43.3019 7.54492C42.1334 7.54492 41.1037 7.73295 40.1898 8.1325C39.2874 8.53206 38.5238 9.07264 37.8875 9.77774C37.2627 10.4828 36.7884 11.329 36.4644 12.2926C36.1405 13.2562 35.9785 14.3139 35.9785 15.442C35.9785 16.5232 36.1521 17.5338 36.4991 18.4387C36.8578 19.3553 37.3437 20.1427 37.9684 20.8008C38.6048 21.4589 39.3683 21.9642 40.2592 22.3285C41.1616 22.7046 42.145 22.8808 43.2209 22.8808C45.1299 22.8808 46.6918 22.3755 47.9181 21.3649C49.1329 20.3425 49.8733 18.8735 50.1394 16.9345H46.3331C46.2058 17.8394 45.8819 18.5562 45.3728 19.085C44.8638 19.6256 44.1349 19.8959 43.1978 19.8959C42.5846 19.8959 42.064 19.7549 41.6359 19.4729C41.2079 19.1908 40.8724 18.8265 40.6294 18.3799C40.3749 17.9451 40.1898 17.4516 40.0856 16.8992C39.9699 16.3587 39.9121 15.8181 39.9121 15.301C39.9121 14.7487 39.9699 14.1964 40.0856 13.644C40.1898 13.0917 40.3864 12.5864 40.6525 12.1281C40.9186 11.658 41.2657 11.2819 41.6938 10.9999C42.1219 10.7061 42.6425 10.5533 43.2788 10.5533C44.9563 10.5533 45.9282 11.3995 46.1943 13.0682Z" fill="#171717"/>
<path d="M53.4072 2V22.7945H57.5593V13.8288H65.2231V22.7945H69.3863V2H65.2231V9.98293H57.5593V2H53.4072Z" fill="#171717"/>
<path d="M85.7695 22.5071V7.54492H81.8243V15.3937C81.8243 16.9128 81.5814 18.01 81.107 18.6731C80.6211 19.3362 79.846 19.6738 78.77 19.6738C77.8329 19.6738 77.1734 19.3724 76.8032 18.7575C76.433 18.1547 76.2479 17.2263 76.2479 15.9966V7.54492H72.3027V16.7441C72.3027 17.6724 72.3837 18.5164 72.5341 19.2759C72.6961 20.0475 72.9738 20.6865 73.3555 21.217C73.7489 21.7475 74.2811 22.1574 74.9521 22.4468C75.6347 22.7362 76.4908 22.8808 77.5552 22.8808C78.3882 22.8808 79.1981 22.6879 79.9964 22.3021C80.7947 21.9163 81.4425 21.2894 81.94 20.4213H82.021V22.5071H85.7695Z" fill="#171717"/>
<path d="M85.7645 7.54541H81.9521V22.7947H85.7645V7.54541Z" fill="#171717"/>
<path d="M93.3411 9.43595H93.3982C93.8725 8.67329 94.532 8.12513 95.3534 7.76763C96.1748 7.41013 97.031 7.2433 97.9218 7.2433C98.6391 7.2433 99.3564 7.3863 100.062 7.69613C100.768 8.00596 101.393 8.47071 101.96 9.10229C102.526 9.72195 102.989 10.5323 103.336 11.5094C103.683 12.4985 103.868 13.6663 103.868 15.0129C103.868 16.3714 103.683 17.5392 103.336 18.5164C102.989 19.5055 102.526 20.3039 101.96 20.9355C101.393 21.567 100.768 22.0318 100.062 22.3416C99.3564 22.6395 98.6391 22.7945 97.9218 22.7945C96.869 22.7945 95.9203 22.6276 95.0873 22.282C94.3407 21.9723 93.7614 21.4711 93.3411 20.7871V22.7945H89.3555V2H93.3411V9.43595ZM93.3411 16.4323C93.3628 16.5428 93.3869 16.6526 93.4134 16.7614C93.5505 17.3257 93.7748 17.8194 94.074 18.2544C94.3731 18.6893 94.747 19.0302 95.2082 19.2771C95.6694 19.5357 96.2054 19.665 96.8161 19.665C97.4642 19.665 98.0002 19.5357 98.4489 19.2771C98.8976 19.0302 99.2715 18.6893 99.5707 18.2544C99.8698 17.8194 100.094 17.3257 100.231 16.7614C100.368 16.1972 100.443 15.6094 100.443 15.0099C100.443 14.3869 100.368 13.7991 100.231 13.2348C100.094 12.6706 99.8698 12.1651 99.5707 11.7301C99.2715 11.3069 98.8976 10.9543 98.4489 10.7074C98.0002 10.4488 97.4642 10.3195 96.8161 10.3195C96.2054 10.3195 95.6694 10.4488 95.2082 10.7074C94.747 10.9543 94.3731 11.3069 94.074 11.7301C93.7748 12.1651 93.5505 12.6706 93.4134 13.2348C93.3869 13.3437 93.3628 13.4535 93.3411 13.5642V16.4323V16.4323Z" fill="#171717"/>
<path fill-rule="evenodd" clip-rule="evenodd" d="M15.9775 8.48554H10.2793V2.79443L15.9775 8.48554Z" fill="#32A4FA"/>
</svg>
